screens;
 
http://imgcum.com/img-5086eb8f9a3f9.html
 
http://imgcum.com/img-5086ebaeca6e8.html

Video
ID                                       : 1
Format                                   : MPEG-4 Visual
Format profile                           : Simple@L1
Format settings, BVOP                    : No
Format settings, QPel                    : No
Format settings, GMC                     : No warppoints
Format settings, Matrix                  : Default (H.263)
Codec ID                                 : 20
Duration                                 : 15mn 34s
Bit rate mode                            : Variable
Bit rate                                 : 8 500 Kbps
Width                                    : 1 920 pixels
Height                                   : 1 080 pixels
Display aspect ratio                     : 16:9
Frame rate mode                          : Constant
Frame rate                               : 25.000 fps
Color space                              : YUV
Chroma subsampling                       : 4:2:0
Bit depth                                : 8 bits
Scan type                                : Progressive
Compression mode                         : Lossy
Bits/(Pixel*Frame)                       : 0.164
Stream size                              : 939 MiB (99%)
Writing library                          : Lavc54.46.100
Language                                 : English

Audio
ID                                       : 2
Format                                   : AAC
Format/Info                              : Advanced Audio Codec
Format profile                           : LC
Codec ID                                 : 40
Duration                                 : 15mn 34s
Duration_LastFrame                       : -3ms
Bit rate mode                            : Variable
Bit rate                                 : 98.5 Kbps
Maximum bit rate                         : 128 Kbps
Channel(s)                               : 2 channels
Channel positions                        : Front: L R
Sampling rate                            : 48.0 KHz
Compression mode                         : Lossy
Stream size                              : 11.0 MiB (1%)
Language                                 : English

Menu
ID                                       : 3
Language                                 : English
